:FULLY-SPECIFIED
:FORCE-ALL-JOINTS-BE-3DOF
:DEGREES
272
root 8.24606 16.221 -25.2615 22.5349 70.955 20.6651
lfemur -24.4163 7.31275 -23.451
ltibia 41.5144 -0 0
lfoot -7.06737 -22.4043 -0.0463365
ltoes 66.1086 -0 0
rfemur -51.9551 -4.10156 13.0892
rtibia 82.2635 -0 0
rfoot 10.1629 -2.27336 0.00574607
rtoes -1.68187 0 0
lowerback 6.43628 -4.51084 -2.75382
upperback 1.57166 -6.18814 -1.78345
thorax -1.89102 -3.0497 0.189558
lowerneck -5.16065 -11.4142 -4.80647
upperneck 0.844152 -15.0786 5.33487
head 1.96123 -7.45164 1.9129
lclavicle -2.57426e-14 3.57812e-15 0
lhumerus -44.9275 -35.344 107.387
lradius 59.2852 -0 0
lwrist 20.3494 0 0
lhand 18.7208 14.7568 0.0321946
lfingers 7.12502 -0 0
lthumb 43.3298 38.7881 0.000884739
rclavicle -2.57426e-14 3.57812e-15 0
rhumerus -54.6442 3.26382 -94.9305
rradius 42.8068 -0 0
rwrist 27.9002 0 0
rhand -26.9785 4.17711 0.824205
rfingers 7.12502 -0 0
rthumb -0.3518 -26.8087 0.0510351
273
root 8.33389 16.184 -25.1984 22.9295 70.9999 21.2369
lfemur -24.1562 7.08194 -23.3139
ltibia 41.657 -0 0
lfoot -6.68015 -22.5652 -0.019227
ltoes 64.9935 -0 0
rfemur -53.4187 -4.75541 13.8231
rtibia 82.5266 -0 0
rfoot 8.79239 -1.40877 -0.00228376
rtoes -0.206499 0 0
lowerback 6.60324 -4.56823 -2.74388
upperback 1.66322 -6.26568 -1.97182
thorax -1.903 -3.09142 0.0046285
lowerneck -5.05216 -11.3857 -4.83653
upperneck 0.751865 -15.0454 5.4953
head 1.93182 -7.43458 1.9779
lclavicle -2.57426e-14 3.57812e-15 0
lhumerus -44.7337 -35.4905 106.978
lradius 59.1947 -0 0
lwrist 20.3341 0 0
lhand 19.268 14.931 0.016363
lfingers 7.12502 -0 0
lthumb 43.8467 38.8222 0.000855701
rclavicle -2.57426e-14 3.57812e-15 0
rhumerus -54.9915 3.63584 -96.0874
rradius 44.4064 -0 0
rwrist 25.6924 0 0
rhand -25.9558 3.88396 0.432287
rfingers 7.12502 -0 0
rthumb 0.614504 -26.6263 0.0300221
274
root 8.4395 16.1423 -25.1255 23.0313 70.8426 21.4534
lfemur -23.9806 6.96001 -23.0939
ltibia 41.8329 0 0
lfoot -6.34822 -22.6063 0
ltoes 63.6522 0 0
rfemur -54.677 -5.40979 14.4999
rtibia 82.6074 0 0
rfoot 7.37167 -0.590177 0
rtoes 1.37596 0 0
lowerback 6.738 -4.61229 -2.71573
upperback 1.7394 -6.3233 -2.13178
thorax -1.91208 -3.12316 -0.164029
lowerneck -4.98008 -11.3206 -4.84023
upperneck 0.669695 -14.9622 5.62359
head 1.90668 -7.39287 2.03008
lclavicle 3.07285e-14 1.19908e-14 0
lhumerus -44.5846 -35.6402 106.647
lradius 59.1166 0 0
lwrist 20.3141 0 0
lhand 19.7519 15.0959 0
lfingers 7.12502 0 0
lthumb 44.3039 38.8645 0
rclavicle 3.07285e-14 1.19908e-14 0
rhumerus -55.2369 3.9752 -97.0583
rradius 46.1277 0 0
rwrist 23.439 0 0
rhand -24.7442 3.49961 0
rfingers 7.12502 0 0
rthumb 1.75858 -746.473 0
275
root 8.5508 16.0976 -25.0513 23.9747 71.4572 22.8406
lfemur -23.468 6.77323 -23.1905
ltibia 42.1569 -0 0
lfoot -6.32877 -23.212 0.0470866
ltoes 63.7186 -0 0
rfemur -55.1507 -5.46525 15.174
rtibia 82.2413 -0 0
rfoot 6.92423 -0.748809 0.0625304
rtoes 2.75749 -0 0
lowerback 6.86042 -4.66523 -2.89001
upperback 1.87165 -6.40059 -2.29597
thorax -1.83882 -3.16404 -0.23066
lowerneck -4.80731 -11.4214 -4.9534
upperneck 0.694414 -15.106 5.81965
head 1.91762 -7.46383 2.10881
lclavicle 3.07285e-14 1.19908e-14 0
lhumerus -44.3306 -35.7769 106.208
lradius 59.1063 -0 0
lwrist 20.3028 0 0
lhand 20.0626 15.1797 -0.00732247
lfingers 7.12502 -0 0
lthumb 44.5967 38.8636 0.0011275
rclavicle 3.07285e-14 1.19908e-14 0
rhumerus -56.0101 4.94662 -97.9123
rradius 47.0737 -0 0
rwrist 22.8084 0 0
rhand -24.966 3.22477 0.0136898
rfingers 7.12502 -0 0
rthumb 1.5444 -26.7521 0.0129555
276
root 8.65447 16.0518 -24.9843 24.9472 72.0495 24.2951
lfemur -22.924 6.64631 -23.2581
ltibia 42.5676 -0 0
lfoot -6.37915 -23.8515 0.095214
ltoes 63.723 -0 0
rfemur -55.447 -5.49334 15.8794
rtibia 81.6328 -0 0
rfoot 6.45225 -1.05056 0.127145
rtoes 4.40995 -0 0
lowerback 6.97258 -4.71496 -3.09093
upperback 2.01467 -6.47385 -2.46034
thorax -1.74584 -3.20308 -0.284757
lowerneck -4.63154 -11.5197 -5.07027
upperneck 0.739521 -15.248 6.02272
head 1.9366 -7.53383 2.19034
lclavicle 3.07285e-14 1.19908e-14 0
lhumerus -44.0684 -35.9343 105.762
lradius 59.1105 -0 0
lwrist 20.2866 0 0
lhand 20.3505 15.2611 -0.0142957
lfingers 7.12502 -0 0
lthumb 44.8679 38.8657 0.00215414
rclavicle 3.07285e-14 1.19908e-14 0
rhumerus -56.8607 6.07626 -98.7363
rradius 48.1923 -0 0
rwrist 22.1851 0 0
rhand -25.1831 2.84969 0.0267218
rfingers 7.12502 -0 0
rthumb 1.33476 -27.1311 0.0252884
277
root 8.75082 16.0052 -24.9237 25.945 72.6162 25.8069
lfemur -22.3549 6.57595 -23.2974
ltibia 43.0563 -0 0
lfoot -6.49447 -24.5178 0.142803
ltoes 63.6694 -0 0
rfemur -55.5748 -5.49826 16.6086
rtibia 80.8024 -0 0
rfoot 5.96056 -1.4839 0.191268
rtoes 6.30345 -0 0
lowerback 7.07437 -4.7613 -3.31525
upperback 2.16669 -6.54273 -2.62369
thorax -1.63511 -3.24011 -0.326766
lowerneck -4.45422 -11.615 -5.18977
upperneck 0.803321 -15.3873 6.23078
head 1.96296 -7.60244 2.27387
lclavicle 3.07285e-14 1.19908e-14 0
lhumerus -43.7999 -36.1098 105.312
lradius 59.1283 -0 0
lwrist 20.266 0 0
lhand 20.6148 15.3396 -0.0208515
lfingers 7.12502 -0 0
lthumb 45.1168 38.8708 0.00305905
rclavicle 3.07285e-14 1.19908e-14 0
rhumerus -57.7816 7.34399 -99.5334
rradius 49.4641 -0 0
rwrist 21.5731 0 0
rhand -25.3943 2.38372 0.0384778
rfingers 7.12502 -0 0
rthumb 1.13089 -27.6007 0.0364045
278
root 8.84014 15.9579 -24.8689 26.9622 73.1541 27.3641
lfemur -21.7666 6.55879 -23.3094
ltibia 43.6143 -0 0
lfoot -6.66981 -25.2042 0.188314
ltoes 63.5619 -0 0
rfemur -55.5434 -5.48428 17.3541
rtibia 79.7704 -0 0
rfoot 5.45404 -2.03726 0.252449
rtoes 8.40808 -0 0
lowerback 7.16565 -4.80407 -3.55974
upperback 2.32596 -6.60692 -2.78481
thorax -1.50863 -3.27498 -0.357129
lowerneck -4.27682 -11.7065 -5.31079
upperneck 0.884135 -15.5231 6.44184
head 1.99601 -7.66922 2.3586
lclavicle 3.07285e-14 1.19908e-14 0
lhumerus -43.5271 -36.3007 104.861
lradius 59.1586 -0 0
lwrist 20.2415 0 0
lhand 20.855 15.4147 -0.0269194
lfingers 7.12502 -0 0
lthumb 45.343 38.8785 0.00382681
rclavicle 3.07285e-14 1.19908e-14 0
rhumerus -58.765 8.73003 -100.306
rradius 50.8695 -0 0
rwrist 20.9764 0 0
rhand -25.5982 1.83618 0.0484566
rfingers 7.12502 -0 0
rthumb 0.93399 -28.1514 0.0458221
279
root 8.92272 15.9101 -24.8189 27.9903 73.66 28.9521
lfemur -21.1651 6.59149 -23.2946
ltibia 44.2329 -0 0
lfoot -6.90022 -25.9039 0.230297
ltoes 63.4046 -0 0
rfemur -55.362 -5.45555 18.1088
rtibia 78.5572 -0 0
rfoot 4.93762 -2.69904 0.308431
rtoes 10.694 -0 0
lowerback 7.24628 -4.84312 -3.82116
upperback 2.4907 -6.66612 -2.9425
thorax -1.36838 -3.30755 -0.376282
lowerneck -4.10084 -11.7939 -5.43225
upperneck 0.980294 -15.6546 6.6539
head 2.0351 -7.73374 2.44376
lclavicle 3.07285e-14 1.19908e-14 0
lhumerus -43.2521 -36.5044 104.414
lradius 59.2006 -0 0
lwrist 20.2134 0 0
lhand 21.0705 15.4862 -0.0324276
lfingers 7.12502 -0 0
lthumb 45.5458 38.8887 0.00444712
rclavicle 3.07285e-14 1.19908e-14 0
rhumerus -59.8028 10.215 -101.056
rradius 52.389 -0 0
rwrist 20.3993 0 0
rhand -25.7936 1.21643 0.0562777
rfingers 7.12502 -0 0
rthumb 0.745307 -28.7739 0.0531766
280
root 8.99888 15.8621 -24.773 29.0181 74.1313 30.5538
lfemur -20.5563 6.67069 -23.2539
ltibia 44.9034 -0 0
lfoot -7.18071 -26.61 0.26743
ltoes 63.2014 -0 0
rfemur -55.0398 -5.41603 18.8655
rtibia 77.1832 -0 0
rfoot 4.4163 -3.45758 0.357213
rtoes 13.1312 -0 0
lowerback 7.31611 -4.87833 -4.09629
upperback 2.65916 -6.72004 -3.09553
thorax -1.21634 -3.33767 -0.384657
lowerneck -3.92777 -11.8764 -5.55303
upperneck 1.09015 -15.781 6.86498
head 2.07956 -7.79557 2.52855
lclavicle 3.07285e-14 1.19908e-14 0
lhumerus -42.977 -36.7184 103.974
lradius 59.2531 -0 0
lwrist 20.1822 0 0
lhand 21.2607 15.5534 -0.0373045
lfingers 7.12502 -0 0
lthumb 45.7247 38.9011 0.00491448
rclavicle 3.07285e-14 1.19908e-14 0
rhumerus -60.8862 11.7797 -101.783
rradius 54.003 -0 0
rwrist 19.8457 0 0
rhand -25.9792 0.533797 0.0616839
rfingers 7.12502 -0 0
rthumb 0.566082 -29.459 0.0582223
